<svg width="17" height="18" viewBox="0 0 17 18" fill="none" xmlns="http://www.w3.org/2000/svg">
<path fill-rule="evenodd" clip-rule="evenodd" d="M8.30492 7.21767C9.9059 7.21767 11.2037 5.91982 11.2037 4.31884C11.2037 2.71786 9.9059 1.42002 8.30492 1.42002C6.70395 1.42002 5.4061 2.71786 5.4061 4.31884C5.4061 5.91982 6.70395 7.21767 8.30492 7.21767ZM8.30492 8.39891C10.5583 8.39891 12.385 6.5722 12.385 4.31884C12.385 2.06548 10.5583 0.23877 8.30492 0.23877C6.05156 0.23877 4.22485 2.06548 4.22485 4.31884C4.22485 6.5722 6.05156 8.39891 8.30492 8.39891Z" fill="black"/>
<path fill-rule="evenodd" clip-rule="evenodd" d="M10.5588 10.6002H6.05101C3.44147 10.6002 1.32602 12.7156 1.32602 15.3252V16.3978H15.2838V15.3252C15.2838 12.7156 13.1684 10.6002 10.5588 10.6002ZM6.05101 9.41895C2.78909 9.41895 0.144775 12.0633 0.144775 15.3252V17.5791H16.4651V15.3252C16.4651 12.0633 13.8208 9.41895 10.5588 9.41895H6.05101Z" fill="black"/>
</svg>
