<svg width="17" height="19" viewBox="0 0 17 19" fill="none" xmlns="http://www.w3.org/2000/svg">
<path fill-rule="evenodd" clip-rule="evenodd" d="M12.1998 8.46247C12.246 8.78538 12.5451 9.00976 12.8681 8.96363C13.191 8.9175 13.4153 8.61833 13.3692 8.29541L13.1127 6.50008H15.6835L15.6835 17.3978H1.72568L1.72568 6.50008H4.29617L4.0397 8.29541C3.99356 8.61833 4.21794 8.9175 4.54086 8.96363C4.86377 9.00976 5.16294 8.78538 5.20907 8.46247L5.48941 6.50008H11.9195L12.1998 8.46247ZM12.944 5.31884L12.782 4.18459C12.4921 2.15542 10.7542 0.648194 8.70446 0.648193C6.65469 0.648193 4.91684 2.15542 4.62696 4.18459L4.46492 5.31884H1.72568C1.0733 5.31884 0.544434 5.8477 0.544434 6.50008V17.3978C0.544434 18.0502 1.07329 18.5791 1.72568 18.5791H15.6835C16.3359 18.5791 16.8647 18.0502 16.8647 17.3978V6.50008C16.8647 5.8477 16.3359 5.31884 15.6835 5.31884H12.944ZM5.65816 5.31884H11.7507L11.6126 4.35164C11.4058 2.90441 10.1664 1.82944 8.70446 1.82944C7.24253 1.82944 6.00308 2.90441 5.79633 4.35164L5.65816 5.31884Z" fill="black"/>
</svg>
