<svg width="28" height="28" viewBox="0 0 28 28" fill="none" xmlns="http://www.w3.org/2000/svg">
<path d="M14 21.6196C11.6799 21.6196 9.183 20.5275 6.77913 18.4614C4.9821 16.9169 3.87295 15.3867 3.82661 15.3222C3.63674 15.0584 3.63674 14.6667 3.82661 14.4028C3.87295 14.3384 4.98206 12.8081 6.77913 11.2636C9.18305 9.19764 11.68 8.10547 14 8.10547C16.32 8.10547 18.817 9.19758 21.2209 11.2636C23.0179 12.8081 24.127 14.3384 24.1734 14.4028C24.3633 14.6666 24.3633 15.0583 24.1734 15.3222C24.127 15.3866 23.0179 16.9169 21.2209 18.4614C18.817 20.5275 16.3201 21.6196 14 21.6196ZM5.06752 14.8626C5.51605 15.4131 6.36257 16.381 7.48026 17.3383C9.01255 18.6506 11.3875 20.2152 14 20.2152C16.6125 20.2152 18.9875 18.6506 20.5197 17.3383C21.6373 16.3812 22.4838 15.4131 22.9325 14.8626C22.484 14.3121 21.6374 13.3442 20.5197 12.3869C18.9875 11.0745 16.6125 9.50998 14 9.50998C11.3875 9.50998 9.01255 11.0745 7.48026 12.3869C6.36271 13.344 5.51614 14.312 5.06752 14.8626Z" fill="black"/>
<path d="M14 17.6848C12.3748 17.6848 11.0526 16.3626 11.0526 14.7374C11.0526 13.1122 12.3748 11.79 14 11.79C15.6253 11.79 16.9474 13.1122 16.9474 14.7374C16.9474 16.3626 15.6253 17.6848 14 17.6848Z" fill="black"/>
</svg>
