<svg width="16" height="16" viewBox="0 0 16 16" fill="none" xmlns="http://www.w3.org/2000/svg">
<path fill-rule="evenodd" clip-rule="evenodd" d="M7.96944 16L7.97659 16H7.97412L7.96944 16ZM8.02588 16H8.02341L8.03056 16L8.02588 16ZM7.945 15.9998L7.95272 15.9999H7.94828L7.945 15.9998ZM8.05172 15.9999H8.04728L8.055 15.9998L8.05172 15.9999ZM7.92144 15.9997L7.92659 15.9997L7.92247 15.9997H7.92144ZM8.07753 15.9997L8.07341 15.9997L8.07856 15.9997H8.07753ZM8.10334 15.9994L8.10153 15.9994L8.1085 15.9993L8.10334 15.9994ZM7.8915 15.9993L7.89847 15.9994L7.89666 15.9994L7.8915 15.9993ZM8.12912 15.999L8.12491 15.9991L8.1335 15.9989L8.12912 15.999ZM7.8665 15.9989L7.87509 15.9991L7.87087 15.999L7.8665 15.9989ZM8.15487 15.9986L8.14919 15.9987L8.15713 15.9985L8.15487 15.9986ZM7.84288 15.9985L7.85081 15.9987L7.84513 15.9986L7.84288 15.9985ZM7.81359 15.9979L7.82062 15.9981L7.81938 15.998L7.81359 15.9979ZM8.18062 15.998L8.17937 15.9981L8.18641 15.9979L8.18062 15.998ZM7.78791 15.9973L7.79756 15.9975L7.79366 15.9974L7.78791 15.9973ZM8.20634 15.9974L8.20244 15.9975L8.21209 15.9973L8.20634 15.9974ZM8.23206 15.9967L8.22578 15.9969L8.23566 15.9966L8.23206 15.9967ZM7.76434 15.9966L7.77422 15.9969L7.76794 15.9967L7.76434 15.9966ZM7.74184 15.9959L7.74888 15.9962L7.74225 15.9959L7.73619 15.9958L7.74184 15.9959ZM8.25775 15.9959L8.25113 15.9962L8.25816 15.9959L8.26381 15.9958L8.25775 15.9959ZM8.28341 15.9951L8.27991 15.9952L8.29069 15.9948L8.28341 15.9951ZM7.70931 15.9948L7.72009 15.9952L7.71659 15.9951L7.70931 15.9948ZM7.68591 15.994L7.69722 15.9944L7.69094 15.9942L7.68591 15.994ZM8.30906 15.9942L8.30278 15.9944L8.31409 15.994L8.30906 15.9942ZM7.66294 15.993L7.674 15.9935L7.66534 15.9932L7.66294 15.993ZM8.33466 15.9932L8.326 15.9935L8.33706 15.993L8.33466 15.9932ZM7.63075 15.9916L7.64262 15.9922L7.63972 15.9921L7.63075 15.9916ZM8.36028 15.9921L8.35738 15.9922L8.36925 15.9916L8.36028 15.9921ZM7.60766 15.9906L7.61997 15.9911L7.61416 15.9909L7.60766 15.9906ZM8.38584 15.9909L8.38003 15.9911L8.39234 15.9906L8.38584 15.9909ZM7.58491 15.9894L7.59731 15.99L7.58859 15.9896L7.58491 15.9894ZM8.41141 15.9896L8.40269 15.99L8.41509 15.9894L8.41141 15.9896ZM8.43697 15.9883L8.42566 15.9889L8.43569 15.9883L8.4475 15.9877L8.43697 15.9883ZM7.56431 15.9883L7.57434 15.9889L7.56303 15.9883L7.5525 15.9877L7.56431 15.9883ZM8.46247 15.9868L8.45747 15.9871L8.47016 15.9864L8.46247 15.9868ZM7.52984 15.9864L7.54253 15.9871L7.53753 15.9868L7.52984 15.9864ZM7.50728 15.9851L7.51994 15.9858L7.51203 15.9854L7.50728 15.9851ZM8.48797 15.9854L8.48006 15.9858L8.49272 15.9851L8.48797 15.9854ZM7.48575 15.9837L7.49716 15.9844L7.48653 15.9838L7.47584 15.9831L7.48575 15.9837ZM8.51347 15.9838L8.50284 15.9844L8.51425 15.9837L8.52416 15.9831L8.51347 15.9838ZM8.53891 15.9821L8.53509 15.9824L8.54719 15.9816L8.53891 15.9821ZM7.45281 15.9816L7.46491 15.9824L7.46109 15.9821L7.45281 15.9816ZM7.43028 15.98L7.44216 15.9808L7.43566 15.9804L7.43028 15.98ZM8.56434 15.9804L8.55784 15.9808L8.56972 15.98L8.56434 15.9804ZM7.40781 15.9784L7.41872 15.9792L7.41025 15.9786L7.40781 15.9784ZM8.58975 15.9786L8.58128 15.9792L8.59219 15.9784L8.58975 15.9786ZM7.37759 15.9761L7.38716 15.9768L7.38484 15.9767L7.37759 15.9761ZM8.61516 15.9767L8.61284 15.9768L8.62241 15.9761L8.61516 15.9767ZM8.6405 15.9747L8.63594 15.9751L8.64566 15.9743L8.6405 15.9747ZM7.35434 15.9743L7.36406 15.9751L7.3595 15.9747L7.35434 15.9743ZM7.33169 15.9724L7.33994 15.9731L7.33413 15.9727L7.33169 15.9724ZM8.66588 15.9727L8.66006 15.9731L8.66831 15.9724L8.66588 15.9727ZM7.30675 15.9703L7.30922 15.9706L7.30881 15.9705L7.30675 15.9703ZM8.69119 15.9705L8.69078 15.9706L8.69325 15.9703L8.69119 15.9705ZM8.7165 15.9683L8.71425 15.9685L8.71991 15.968L8.7165 15.9683ZM7.28009 15.968L7.28575 15.9685L7.2835 15.9683L7.28009 15.968ZM7.25666 15.9659L7.26088 15.9663L7.25825 15.966L7.25666 15.9659ZM8.74175 15.966L8.73913 15.9663L8.74334 15.9659L8.74175 15.966ZM6.75 15.9028C2.92753 15.3019 0 11.9901 0 8.00002C0 3.58469 3.58469 0 8 0C12.4153 0 16 3.58469 16 8.00002C16 11.9901 13.0725 15.3019 9.25 15.9028V10.3125H11.1141L11.4688 8.00002H9.25V6.49936C9.25 5.8667 9.55994 5.25001 10.5537 5.25001H11.5625V3.28126C11.5625 3.28126 10.647 3.12501 9.77172 3.12501C7.94434 3.12501 6.75 4.23251 6.75 6.23751V8.00002H4.71875V10.3125H6.75V15.9028Z" fill="#CE4558"/>
</svg>
