<svg width="32" height="32" viewBox="0 0 32 32" fill="none" xmlns="http://www.w3.org/2000/svg">
<rect width="32" height="32" fill="#FAEBED"/>
<path d="M21.7629 19.5255C21.4254 19.5257 21.0922 19.6023 20.7885 19.7495C20.4847 19.8968 20.2182 20.1108 20.0089 20.3757L12.3934 16.5724C12.5008 16.1951 12.5008 15.7953 12.3934 15.418L20 11.6147C20.3259 12.0317 20.7891 12.3198 21.3073 12.4276C21.8255 12.5354 22.3651 12.456 22.8303 12.2034C23.2955 11.9509 23.6561 11.5416 23.8479 11.0483C24.0398 10.555 24.0506 10.0097 23.8784 9.50919C23.7061 9.0087 23.362 8.58549 22.9072 8.31477C22.4523 8.04405 21.9163 7.94336 21.3942 8.0306C20.8721 8.11783 20.3979 8.38734 20.0558 8.79123C19.7137 9.19511 19.5258 9.70721 19.5257 10.2365C19.5242 10.4333 19.5513 10.6292 19.6062 10.8182L11.9996 14.6215C11.7127 14.2546 11.3185 13.9865 10.872 13.8543C10.4254 13.7222 9.94871 13.7327 9.50841 13.8844C9.06811 14.0362 8.68612 14.3215 8.41573 14.7007C8.14533 15.0798 8 15.5339 8 15.9996C8 16.4653 8.14533 16.9194 8.41573 17.2986C8.68612 17.6778 9.06811 17.9631 9.50841 18.1148C9.94871 18.2665 10.4254 18.2771 10.872 18.1449C11.3185 18.0128 11.7127 17.7446 11.9996 17.3778L19.6062 21.1811C19.5513 21.37 19.5242 21.566 19.5257 21.7628C19.5257 22.2052 19.6569 22.6378 19.9027 23.0057C20.1486 23.3736 20.498 23.6604 20.9068 23.8297C21.3156 23.999 21.7654 24.0433 22.1994 23.957C22.6334 23.8707 23.032 23.6576 23.3449 23.3447C23.6578 23.0318 23.8708 22.6332 23.9572 22.1992C24.0435 21.7652 23.9992 21.3154 23.8299 20.9066C23.6605 20.4978 23.3738 20.1484 23.0059 19.9026C22.6379 19.6567 22.2054 19.5255 21.7629 19.5255ZM21.7629 8.89417C22.0284 8.89417 22.2879 8.9729 22.5087 9.1204C22.7294 9.2679 22.9015 9.47754 23.0031 9.72282C23.1047 9.9681 23.1313 10.238 23.0795 10.4984C23.0277 10.7588 22.8998 10.998 22.7121 11.1857C22.5244 11.3734 22.2852 11.5013 22.0248 11.5531C21.7644 11.6049 21.4945 11.5783 21.2492 11.4767C21.0039 11.3751 20.7943 11.203 20.6468 10.9823C20.4993 10.7615 20.4206 10.502 20.4206 10.2365C20.4206 9.8805 20.562 9.53907 20.8137 9.28734C21.0655 9.0356 21.4069 8.89417 21.7629 8.89417ZM10.2367 17.342C9.97118 17.342 9.71165 17.2633 9.4909 17.1158C9.27016 16.9683 9.09811 16.7586 8.99651 16.5133C8.89491 16.268 8.86832 15.9981 8.92012 15.7378C8.97191 15.4774 9.09976 15.2382 9.28749 15.0505C9.47522 14.8627 9.7144 14.7349 9.97479 14.6831C10.2352 14.6313 10.5051 14.6579 10.7504 14.7595C10.9956 14.8611 11.2053 15.0331 11.3528 15.2539C11.5003 15.4746 11.579 15.7341 11.579 15.9996C11.579 16.3556 11.4376 16.6971 11.1858 16.9488C10.9341 17.2006 10.5927 17.342 10.2367 17.342ZM21.7629 23.1051C21.4974 23.1051 21.2379 23.0264 21.0171 22.8789C20.7964 22.7314 20.6244 22.5217 20.5228 22.2765C20.4212 22.0312 20.3946 21.7613 20.4464 21.5009C20.4982 21.2405 20.626 21.0013 20.8137 20.8136C21.0015 20.6259 21.2406 20.498 21.501 20.4462C21.7614 20.3944 22.0313 20.421 22.2766 20.5226C22.5219 20.6242 22.7315 20.7962 22.879 21.017C23.0265 21.2377 23.1053 21.4973 23.1053 21.7628C23.1053 22.1188 22.9638 22.4602 22.7121 22.7119C22.4604 22.9637 22.1189 23.1051 21.7629 23.1051Z" fill="#7A7A7A"/>
</svg>
