<svg width="22" height="22" viewBox="0 0 22 22" fill="none" xmlns="http://www.w3.org/2000/svg">
<path d="M19.9884 9.20438H19.25V9.16634H11V12.833H16.1805C15.4247 14.9675 13.3939 16.4997 11 16.4997C7.96262 16.4997 5.49999 14.037 5.49999 10.9997C5.49999 7.9623 7.96262 5.49967 11 5.49967C12.402 5.49967 13.6776 6.02859 14.6488 6.89255L17.2416 4.29976C15.6044 2.77397 13.4145 1.83301 11 1.83301C5.9377 1.83301 1.83333 5.93738 1.83333 10.9997C1.83333 16.062 5.9377 20.1663 11 20.1663C16.0623 20.1663 20.1667 16.062 20.1667 10.9997C20.1667 10.385 20.1034 9.78509 19.9884 9.20438Z" fill="#FFC107"/>
<path d="M2.89024 6.73305L5.90195 8.94176C6.71687 6.92417 8.69045 5.49967 11 5.49967C12.402 5.49967 13.6776 6.02859 14.6488 6.89255L17.2416 4.29976C15.6044 2.77397 13.4145 1.83301 11 1.83301C7.47908 1.83301 4.42566 3.8208 2.89024 6.73305Z" fill="#FF3D00"/>
<path d="M11 20.167C13.3677 20.167 15.5192 19.2609 17.1458 17.7873L14.3087 15.3866C13.3884 16.0837 12.2444 16.5003 11 16.5003C8.61575 16.5003 6.59129 14.98 5.82862 12.8584L2.83937 15.1615C4.35645 18.1301 7.43737 20.167 11 20.167Z" fill="#4CAF50"/>
<path d="M19.9884 9.20503H19.25V9.16699H11V12.8337H16.1805C15.8175 13.859 15.158 14.7431 14.3073 15.387L14.3087 15.3861L17.1458 17.7869C16.945 17.9693 20.1667 15.5837 20.1667 11.0003C20.1667 10.3857 20.1034 9.78574 19.9884 9.20503Z" fill="#1976D2"/>
</svg>
