<svg width="12" height="14" viewBox="0 0 12 14" fill="none" xmlns="http://www.w3.org/2000/svg">
<path d="M10.8335 11.4871H1.16747C0.765774 11.4871 0.397412 11.2692 0.182396 10.9038C-0.0326206 10.5383 -0.0592893 10.0871 0.111724 9.6958L1.00013 7.77094V5.5212C1.00013 2.56354 3.09062 0.141131 5.75949 0.00579444C7.14326 -0.0616942 8.45303 0.462061 9.45144 1.48767C10.4509 2.514 11.0009 3.89788 11.0009 5.38443V7.77094L11.8843 9.68539C12.06 10.0871 12.0336 10.5387 11.8186 10.9041C11.6036 11.2696 11.2352 11.4871 10.8335 11.4871ZM4.03036 12.2051C4.1897 13.2221 5.0111 14 6.00051 14C6.98992 14 7.81098 13.2221 7.97066 12.2051H4.03036Z" fill="#8A2432"/>
</svg>
