<svg width="17" height="17" viewBox="0 0 17 17" fill="none" xmlns="http://www.w3.org/2000/svg">
<path d="M6.88644 0.240479C3.09132 0.240479 0 3.3318 0 7.12692C0 10.922 3.09132 14.0134 6.88644 14.0134C8.53679 14.0134 10.0524 13.4273 11.2402 12.4545L15.3519 16.5662C15.4154 16.6323 15.4914 16.6851 15.5755 16.7214C15.6596 16.7578 15.7501 16.777 15.8417 16.7779C15.9333 16.7788 16.0242 16.7615 16.1091 16.7268C16.1939 16.6922 16.2709 16.641 16.3357 16.5762C16.4005 16.5114 16.4517 16.4344 16.4864 16.3495C16.521 16.2647 16.5383 16.1738 16.5374 16.0822C16.5365 15.9906 16.5173 15.9001 16.4809 15.816C16.4446 15.7319 16.3918 15.6559 16.3257 15.5924L12.214 11.4807C13.1868 10.2929 13.7729 8.77727 13.7729 7.12692C13.7729 3.3318 10.6816 0.240479 6.88644 0.240479ZM6.88644 1.61777C9.93722 1.61777 12.3956 4.07614 12.3956 7.12692C12.3956 10.1777 9.93722 12.6361 6.88644 12.6361C3.83567 12.6361 1.37729 10.1777 1.37729 7.12692C1.37729 4.07614 3.83567 1.61777 6.88644 1.61777Z" fill="black"/>
</svg>
