<svg width="25" height="24" viewBox="0 0 24 24" fill="none" xmlns="http://www.w3.org/2000/svg">
<path d="M11.5245 2.27254C11.6741 1.81189 12.3259 1.81189 12.4755 2.27254L14.288 7.85081C14.4219 8.26284 14.8058 8.5418 15.2391 8.5418H21.1044C21.5888 8.5418 21.7902 9.1616 21.3983 9.4463L16.6531 12.8939C16.3027 13.1485 16.156 13.5999 16.2899 14.0119L18.1024 19.5902C18.252 20.0508 17.7248 20.4339 17.3329 20.1492L12.5878 16.7016C12.2373 16.447 11.7627 16.447 11.4122 16.7016L6.66706 20.1492C6.2752 20.4339 5.74796 20.0508 5.89763 19.5902L7.71012 14.0119C7.844 13.5999 7.69734 13.1485 7.34685 12.8939L2.60169 9.4463C2.20984 9.1616 2.41122 8.5418 2.89558 8.5418H8.76093C9.19415 8.5418 9.57811 8.26284 9.71198 7.85081L11.5245 2.27254Z" stroke="black" stroke-width="0.5"/>
</svg>
