<svg width="24" height="24" viewBox="0 0 20 19" fill="none" xmlns="http://www.w3.org/2000/svg">
<path d="M9.12987 0.345488C9.27947 -0.115162 9.93127 -0.115162 10.0809 0.345488L11.8934 5.92376C12.0273 6.33579 12.4112 6.61475 12.8445 6.61475H18.7098C19.1942 6.61475 19.3956 7.23455 19.0037 7.51925L14.2585 10.9668C13.9081 11.2214 13.7614 11.6728 13.8953 12.0848L15.7078 17.6631C15.8574 18.1237 15.3302 18.5068 14.9383 18.2221L10.1932 14.7745C9.84267 14.5199 9.36807 14.5199 9.01757 14.7745L4.27243 18.2221C3.88057 18.5068 3.35333 18.1237 3.503 17.6631L5.31549 12.0848C5.44937 11.6728 5.30271 11.2214 4.95222 10.9668L0.207063 7.51925C-0.184787 7.23455 0.0165931 6.61475 0.500953 6.61475H6.3663C6.79952 6.61475 7.18348 6.33579 7.31735 5.92376L9.12987 0.345488Z" fill="#8A2432"/>
</svg>
