<?xml version="1.0" encoding="utf-8"?>
<!-- Generator: Adobe Illustrator 24.3.0, SVG Export Plug-In . SVG Version: 6.00 Build 0)  -->
<svg version="1.1" id="Layer_1" xmlns="http://www.w3.org/2000/svg" xmlns:xlink="http://www.w3.org/1999/xlink" x="0px" y="0px"
	 viewBox="0 0 260.2 53.6" style="enable-background:new 0 0 260.2 53.6;" xml:space="preserve">
<style type="text/css">
	.st0{fill:#231F20;}
	.st1{fill:#8A2432;}
	.st2{fill-rule:evenodd;clip-rule:evenodd;fill:#FFFFFF;}
	.st3{fill:#232020;}
	.st4{fill:none;}
</style>
<g>
	<polygon class="st0" points="75.2,13.9 69.5,32.9 67.3,32.9 61.8,16.6 56.1,32.9 54,32.9 48.8,13.9 46.2,13.9 46.2,12.9 56.8,12.9 
		56.8,13.9 52.1,13.9 55.8,28.4 61.2,12.9 64,12.9 69,28.9 73.1,13.9 68.6,13.9 68.6,12.9 78.2,12.9 78.2,13.9 	"/>
	<path class="st0" d="M79.4,32.4v-1.1h4V13.9h-4v-1.1h7.4l-0.2,18.5h3.8v1.1H79.4z M84.9,8.9c-1.4,0-2.5-1.1-2.5-2.5S83.5,4,84.9,4
		s2.5,1.1,2.5,2.5S86.2,8.9,84.9,8.9"/>
	<path class="st0" d="M101.5,33c-4.7,0-8.7-4.4-8.7-10.4c0-6.1,4.1-10.4,9.8-10.4c4,0,6.6,2,6.6,4.4c0,1.3-1.1,2.4-2.4,2.4
		c-1.3,0-2.4-1-2.4-2.4c0-1.2,0.7-1.9,2-2.3c-0.8-0.5-1.7-0.7-2.7-0.7c-4.6,0-7.1,3.1-7.1,8.7s2.4,8.8,6.2,8.8
		c2.3,0,4.2-1.6,4.8-4.4h1.3C107.9,30.7,105,33,101.5,33"/>
	<polygon class="st0" points="127.8,32.4 117.9,22 117.5,31.3 121.5,31.3 121.5,32.4 111.2,32.4 111.2,31.3 114.4,31.3 114.4,1.1 
		110.4,1.1 110.4,0 117.8,0 117.5,21.5 126.4,13.9 121.6,13.9 121.6,12.9 132.3,12.9 132.3,13.9 129.1,13.9 121,20.9 131.2,31.3 
		133.2,31.3 133.2,32.4 	"/>
	<path class="st0" d="M159.8,32.4v-1.1h3.6V17.5c0-1.9-1.3-3.1-3.5-3.1c-1.8,0-3.6,1.1-5.9,3.1l-0.2,13.9h3.3v1.1h-10v-1.1h3.6V17.5
		c0-1.9-1.3-3.1-3.5-3.1c-1.8,0-3.6,1-5.8,3.1l-0.3,13.9h3.4v1.1h-10.2v-1.1h3.7V13.9h-3.7v-1.1h6.7l-0.2,3.8
		c2.9-2.9,5.3-4.4,7.7-4.4c2.9,0,4.6,1.5,4.9,4.4c3-2.9,5.4-4.4,8-4.4c3.1,0,5.2,2.1,5.2,4.9v0.1l-0.2,14.1h3.3v1.1H159.8z"/>
	<path class="st0" d="M190.4,28.1c0,3.3-0.9,4.7-3.2,4.7c-2.1,0-3.2-1.1-3.5-3.3c-2.3,2.3-4.5,3.5-6.8,3.5c-2.7,0-4.4-1.7-4.4-4.1
		c0-3.6,3.6-6.5,10.6-8.4v-2c0-2.9-1.2-4.4-3.9-4.4c-2.9,0-4.4,1.8-4.4,5.4H173c0-5,2.3-7.4,7.1-7.4c4.1,0,6.4,2.1,6.4,5.9v0.3
		l-0.2,8.5c0,0.9,0,1.5,0,2c0,1.6,0.3,2.3,1.4,2.3c1,0,1.4-0.6,1.5-2l0-2.3h1.2C190.4,27.4,190.4,27.7,190.4,28.1 M176,28.3
		c0,1.7,1,2.7,2.5,2.7c1.1,0,2.7-0.7,4.6-2.2l0.1-6.7C178.4,23.4,176,25.6,176,28.3"/>
	<path class="st0" d="M206.3,32.4v-1.1h3.6V17.5c0-1.9-1.3-3.1-3.5-3.1c-2.1,0-4.3,1-7,3l-0.2,13.9h3.4v1.1h-10.2v-1.1h3.7V13.9
		h-3.7v-1.1h6.7l-0.2,3.8c3-2.9,6-4.4,8.9-4.4c3.3,0,5.5,2.1,5.5,4.9v0.1l-0.2,14.1h3.2v1.1H206.3z"/>
	<path class="st0" d="M218.8,11.6c1.2,0,1.8,0.7,1.8,1.7c0,1-0.8,1.9-1.7,1.9c-1,0-1.7-0.8-1.7-2c0-0.5,0.2-1.2,0.5-2l1.9-4.2h1.5
		L218.8,11.6z"/>
	<path class="st0" d="M231.9,13.6c-2.7,0-4.2,1.2-4.2,3.4c0,2.3,1.9,2.7,5.1,3.8c3.5,1.2,5.1,2.7,5.1,5.7c0,3.8-2.8,6.6-7.2,6.6
		c-2.2,0-4.1-0.6-6.1-1.9l-0.2-4.8h1.5l0.1,3.9c1.4,0.7,2.7,1,3.9,1c2.9,0,4.9-1.6,4.9-3.8c0-2.6-1.8-3.3-5-4.4
		c-3.4-1.2-5-2.3-5-5.4c0-3.4,2.6-5.9,6.6-5.9c2.1,0,3.9,0.5,5.8,1.7v4.6h-1.4v-3.8C234.6,13.9,233.4,13.6,231.9,13.6"/>
	<rect y="13.1" class="st1" width="37.8" height="37.8"/>
	<g>
		<path class="st2" d="M18,22.1c0.2,0.1,0.3,0.1,0.3-0.1c0.6,0.3-0.4,0.7-0.9,0.7c0-0.4,0.2-0.4,0.5-0.2C18.1,22.4,18,22.2,18,22.1"
			/>
		<path class="st2" d="M10,23.7c0.2,0.5-0.3,0.4-0.6,0.5C9.5,23.9,9.7,23.8,10,23.7"/>
		<path class="st2" d="M12.8,23.9c-0.1-0.4,0.5-0.2,0.8-0.3C13.6,23.9,13,23.8,12.8,23.9"/>
		<path class="st2" d="M6.7,22.4c6.4-1.4,12.1-5.1,17.3-6c0.1-0.1,0.1-0.4,0.4-0.4c-0.2,0.3,0.2,0.5,0.6,0.6c0,0.2,0.1,0.5-0.1,0.5
			c0.1,0.2,0.4,0.2,0.7,0.2c-0.8-0.3,0.4-0.4,0.9-0.5c-0.2,0.7,0.3,0.4,0.3,1.1c-0.4,0-0.6,0.2-0.4,0.6c-0.8,0-0.7,0-1.2,0.4
			c0-0.6-0.4-0.6-0.2-1c-0.5,0.1-1.5,0.7-2,0c-0.9,0.4-1.3,0.4-2,1c0.3,0.3,0.4-0.2,0.8,0c0,0.4-0.7,0.2-0.9,0.3
			c0-0.3-0.2-0.3-0.2-0.5c-0.3,0.1-0.6,0.2-0.7,0.5c0.1,0.4,0.4-0.3,0.8-0.1c0,0.8-1,0.1-0.7,1c-2.9,0.3-4.7,1.8-7.8,2.4
			c0,0,0.2-0.3,0.1-0.4c-0.6-0.3-1,0.4-1.4,0.8c-0.1-0.3,0.1-0.3,0.1-0.5c-0.2,0.2-0.4,0.3-0.8,0.3c1,0.4-0.6,0.5-0.6,0.3
			C9.6,23.6,9,24,9.1,24.5c-0.3-0.2-0.2-0.8,0.1-1.2c-0.3,0.8-1,0.3-1.7,0.8c0.4,0,0.6,0.2,1.1,0c0,0.1,0,0.2-0.1,0.2
			c0,0.1,0.1,0.1,0.2,0.1c-0.2,0.4-0.4,0-0.8,0.3c0.1,0.1,0.2,0.2,0.2,0.5c-0.4-0.2-0.2,0-0.6,0.1c0.3-1-0.4,0.7-0.5-0.2
			c-0.1,0.4,0,0.5-0.3,0.9c0.1-0.8-0.6-0.4-1.3-0.8c0.2-0.5,0.6,0,0.9-0.3c-0.1-0.6-0.5,0.5-0.5-0.1c-0.4-0.1,0.9-0.5,1.2-0.6
			c-0.2-0.1-1-0.1-1.4-0.4C6,22.8,6.9,23.4,6.7,22.4 M21.4,17.9c-0.1-0.4,0.9,0,0.5-0.6C21.4,17.2,21.1,17.9,21.4,17.9 M24.6,17.5
			C23.8,17.2,24.3,18.1,24.6,17.5 M19.9,19.4c-0.5,0.1,0.3-0.5-0.2-0.5c0,0.2-0.2,0.2-0.3,0.4C19.6,19.2,19.9,19.9,19.9,19.4
			 M14.7,20.6c0.2,0,0.3-0.1,0.5-0.1c0.1,0.1,0.1,0.3,0.2,0.3c-0.3-0.4,0.2-0.9-0.1-0.8C15.4,20.5,14.7,20.3,14.7,20.6 M14.2,20.9
			c0,0-0.1-0.7-0.2-0.1C14,21.2,14.2,21,14.2,20.9 M8.5,22.8c0.2,0,0.3-0.1,0.4-0.2C9,22.7,9,22.9,9.2,22.8c0.2-0.3-0.1-0.5-0.4-0.6
			C8.8,22.5,8.4,22.4,8.5,22.8 M10.6,22.4c0.1-0.1,0.8-0.5,0.2-0.5C11,22.2,10.1,22.4,10.6,22.4"/>
		<path class="st2" d="M22,22c-0.1-0.2-0.4-0.1-0.7,0c0-0.3,1-0.5,1.1-0.2c1.1-0.5,2.3-1.9,3-1.7c0.7-0.8,1.4-1.4,2.6-1.3
			c0,1.7-1.8,2.2-0.7,3.4c-3,0.9-5.2,1.6-7.9,2.6c0.6,1.4,1.2,3.5,0.3,4.5c0.3,0.5,0.3,0.5,0.5,0.9c0.4-0.3,0.8,0.4,0.6-0.3
			c2.2,0.9,1.4,4.3,0.1,5.4c-0.1,0.3,0.6,0.5,0.1,0.7c0.1,0.4,0.7,0.2,0.9,0.5c-0.1,0.5-0.6-0.1-0.8,0c0,0.4,0.9,0.6,0.9,0.3
			c0.4,0.2,0.5,0.8,1.2,0.6c0.2,0.8,0.4,3.3,0.4,3.5c0.1,0.2,0.4,0.1,0.7,0c1.1,1.6,0.1,3.4,0.2,5.2c0.1,0.9,0.9,2.1-0.3,2.3
			c-1-1.7-0.6-3.8-0.7-6c-0.4-0.2-1.4-0.5-1.7-0.2c-0.2-0.1-0.1-0.9-0.8-0.7c0.8-1.3,1.7-1.8,1.3-3c-0.1-0.4-1.4-1.2-2-1.3
			c-0.8-0.1-0.3,0.2-1,0.2c0.1-0.2,0-0.5,0.2-0.5c-0.1-0.4-0.2,0.3-0.6,0.1c-0.1-0.7,0.2,0,0.4-0.4c-0.1-0.3-0.5-0.7-0.5-0.1
			c0.2-1.3,2-2.8,2.2-4.7c-0.3-0.5-2.6-0.2-3.5-0.4c0,0,0.1,0.2,0.2,0.1c-0.4,0.4-0.9-1.5-0.2-1.2c-0.1-0.5,0.3-0.9,0.7-1.5
			c0.8-1.2,1.8-2.9-0.3-3.9c-4.1,1.1-7.2,3.5-11.4,3.4c-0.2-0.5-0.4-0.9-0.7-1.2c0.2-0.2,0.3-0.5,0.7-0.6c0.3,0.6,1.6-1,3-0.9
			c0.6,0.2-0.8,0.1-0.6,0.5c0,0.6,0.7,0.1,1,0.2c-0.2-0.2-0.3-0.6,0.1-0.4c0-0.2-0.7-0.3-0.2-0.5c0.5-0.2,0.3,0.3,0.4,0.6
			c0.2-0.2,0.4-0.3,0.8-0.3c0-0.3-0.1-0.5-0.4-0.4c0.9-1.2,4-0.4,5.1-1.8c0.1-0.2,0.1-0.5,0.5-0.2c0.6,0-0.2-0.9,0.2-0.5
			c0.3-0.2,0.3-0.2,0.2,0.1c0.7,0.4,3.1-0.3,4.2-0.4C20.3,21.8,21.1,22.8,22,22 M23.2,41.2c0.4-0.3-0.4-0.7-0.5-0.2
			C23,40.9,23,41.1,23.2,41.2"/>
		<path class="st2" d="M21.6,20.9c0.5,0.3-0.7,0.5-0.5,1.1c-0.2-0.1-0.6,0-0.7-0.4c0.1,0.2-0.5,1-0.8,0.1
			C20,21.8,21.2,21.4,21.6,20.9"/>
		<path class="st2" d="M21.7,21.4C22.5,21,21.3,21.6,21.7,21.4"/>
		<path class="st2" d="M14.7,22.9c0.3,0-0.1,0.3,0.2,0.3c-0.2,0-0.9,0.5-1.1,0.4C13.9,23.1,14.7,23.2,14.7,22.9"/>
	</g>
	<g>
		<path class="st3" d="M54.2,43.9h1.7v0.6h-1.7v5c0,0.2,0,0.4,0.2,0.5c0.2,0.1,0.3,0.2,0.6,0.2h0.9v0.5h-4.2v-0.5h0.6
			c0.3,0,0.4,0,0.5-0.1c0.1-0.1,0.2-0.2,0.2-0.4v-5.1h-1.2v-0.6H53v-0.5c0-1.2,0.2-2.1,0.8-2.7s1.1-0.9,1.8-0.9c0.5,0,1,0.1,1.3,0.4
			c0.3,0.3,0.5,0.6,0.5,1c0,0.3-0.1,0.5-0.2,0.7s-0.3,0.2-0.6,0.2c-0.2,0-0.4-0.1-0.5-0.2s-0.2-0.3-0.2-0.5c0-0.2,0.1-0.4,0.3-0.6
			c0.1-0.1,0.2-0.2,0.2-0.3c0-0.1,0-0.2-0.2-0.2s-0.3-0.1-0.5-0.1c-0.4,0-0.8,0.2-1,0.5s-0.4,0.9-0.4,1.6L54.2,43.9L54.2,43.9z"/>
		<path class="st3" d="M57.2,43.9l2.7-0.1v5.8c0,0.2,0,0.3,0.1,0.3c0.1,0.1,0.2,0.2,0.4,0.2h0.8v0.5h-3.9v-0.5h0.7
			c0.2,0,0.4,0,0.5-0.2c0.1-0.1,0.2-0.2,0.2-0.5v-4.3c0-0.3-0.1-0.5-0.2-0.6c-0.2-0.1-0.4-0.2-0.7-0.2h-0.6L57.2,43.9L57.2,43.9z
			 M59.1,39.9c0.2,0,0.4,0.1,0.6,0.2c0.2,0.2,0.2,0.4,0.2,0.6s-0.1,0.4-0.2,0.6c-0.2,0.2-0.3,0.2-0.6,0.2s-0.4-0.1-0.6-0.2
			c-0.2-0.2-0.2-0.3-0.2-0.6s0.1-0.4,0.2-0.6C58.7,39.9,58.9,39.9,59.1,39.9z"/>
		<path class="st3" d="M62.6,43.9l2.3-0.1c0.1,0.4,0.2,0.9,0.2,1.5c0.3-0.5,0.7-0.9,1.1-1.1c0.4-0.2,0.9-0.4,1.4-0.4
			c0.4,0,0.8,0.1,1.1,0.3c0.3,0.2,0.6,0.5,0.7,0.8s0.3,0.8,0.3,1.3v3.3c0,0.2,0.1,0.4,0.2,0.5s0.3,0.2,0.6,0.2h0.5v0.5h-3.6v-0.5
			h0.3c0.3,0,0.5,0,0.7-0.2c0.1-0.1,0.2-0.2,0.2-0.5v-2.9c0-0.6-0.1-1.1-0.3-1.4c-0.3-0.4-0.7-0.7-1.2-0.7s-1,0.2-1.4,0.7
			c-0.4,0.4-0.6,1-0.6,1.7v2.5c0,0.2,0.1,0.4,0.2,0.5s0.3,0.2,0.6,0.2h0.5v0.5h-3.6v-0.5h0.5c0.2,0,0.4,0,0.5-0.2
			c0.1-0.1,0.2-0.2,0.2-0.4v-4.4c0-0.3-0.1-0.5-0.2-0.7c-0.2-0.2-0.4-0.2-0.7-0.2h-0.3L62.6,43.9L62.6,43.9z"/>
		<path class="st3" d="M78.7,47.4h-4.9c0,1,0.2,1.8,0.6,2.2c0.4,0.5,0.9,0.7,1.6,0.7c0.9,0,1.7-0.5,2.3-1.6l0.5,0.2
			c-0.7,1.4-1.7,2.1-3.1,2.1c-0.9,0-1.7-0.3-2.3-1s-0.9-1.5-0.9-2.5c0-1.1,0.3-2,0.9-2.7c0.6-0.7,1.4-1,2.3-1c0.7,0,1.2,0.2,1.7,0.5
			c0.5,0.3,0.8,0.8,1.1,1.5C78.6,46.1,78.7,46.7,78.7,47.4z M73.8,46.8h2.9c0.2,0,0.3-0.1,0.4-0.2c0.1-0.1,0.1-0.3,0.1-0.6
			c0-0.5-0.2-1-0.5-1.4c-0.3-0.4-0.7-0.6-1.2-0.6c-0.5,0-0.9,0.2-1.3,0.7C74,45.3,73.8,46,73.8,46.8z"/>
		<path class="st3" d="M84.9,43.9h3v0.5h-0.4c-0.2,0-0.3,0-0.4,0.1S87,44.6,87,44.7c0,0.1,0,0.2,0.1,0.3l1.5,3.8l1.3-3.7
			c-0.2-0.4-0.3-0.6-0.5-0.7c-0.1-0.1-0.4-0.1-0.7-0.1v-0.5H92v0.5h-0.3c-0.2,0-0.4,0-0.5,0.1c-0.1,0.1-0.1,0.2-0.1,0.3
			c0,0.1,0,0.2,0.1,0.3l1.5,3.8l1.2-3.4c0.1-0.2,0.1-0.4,0.1-0.6c0-0.2-0.1-0.3-0.2-0.4c-0.1-0.1-0.4-0.1-0.7-0.2v-0.5h2.7v0.5
			c-0.3,0-0.6,0.2-0.8,0.3s-0.3,0.4-0.4,0.7l-2,5.5h-0.4l-1.9-4.8l-1.7,4.8h-0.4l-2.4-6c-0.1-0.2-0.2-0.3-0.3-0.4
			c-0.1-0.1-0.3-0.1-0.5-0.1L84.9,43.9L84.9,43.9z"/>
		<path class="st3" d="M97,43.9l2.7-0.1v5.8c0,0.2,0,0.3,0.1,0.3c0.1,0.1,0.2,0.2,0.4,0.2h0.8v0.5h-3.9v-0.5h0.7
			c0.2,0,0.4,0,0.5-0.2c0.1-0.1,0.2-0.2,0.2-0.5v-4.3c0-0.3-0.1-0.5-0.2-0.6c-0.2-0.1-0.4-0.2-0.7-0.2H97L97,43.9L97,43.9z
			 M98.9,39.9c0.2,0,0.4,0.1,0.6,0.2c0.2,0.2,0.2,0.4,0.2,0.6s-0.1,0.4-0.2,0.6c-0.2,0.2-0.3,0.2-0.6,0.2s-0.4-0.1-0.6-0.2
			c-0.2-0.2-0.2-0.3-0.2-0.6s0.1-0.4,0.2-0.6C98.5,39.9,98.7,39.9,98.9,39.9z"/>
		<path class="st3" d="M102.4,43.9l2.2-0.1c0.1,0.4,0.2,0.9,0.2,1.5c0.3-0.5,0.7-0.9,1.1-1.1c0.4-0.2,0.9-0.4,1.4-0.4
			c0.4,0,0.8,0.1,1.1,0.3c0.3,0.2,0.6,0.5,0.7,0.8s0.3,0.8,0.3,1.3v3.3c0,0.2,0.1,0.4,0.2,0.5s0.3,0.2,0.6,0.2h0.5v0.5h-3.6v-0.5
			h0.3c0.3,0,0.5,0,0.7-0.2c0.1-0.1,0.2-0.2,0.2-0.5v-2.9c0-0.6-0.1-1.1-0.3-1.4c-0.3-0.4-0.7-0.7-1.2-0.7s-1,0.2-1.4,0.7
			c-0.4,0.4-0.6,1-0.6,1.7v2.5c0,0.2,0.1,0.4,0.2,0.5s0.3,0.2,0.6,0.2h0.5v0.5h-3.6v-0.5h0.5c0.2,0,0.4,0,0.5-0.2
			c0.1-0.1,0.2-0.2,0.2-0.4v-4.4c0-0.3-0.1-0.5-0.2-0.7c-0.2-0.2-0.4-0.2-0.7-0.2h-0.3L102.4,43.9L102.4,43.9z"/>
		<path class="st3" d="M118.5,47.4h-4.9c0,1,0.2,1.8,0.6,2.2c0.4,0.5,0.9,0.7,1.6,0.7c0.9,0,1.7-0.5,2.3-1.6l0.5,0.2
			c-0.7,1.4-1.7,2.1-3.1,2.1c-0.9,0-1.7-0.3-2.3-1s-0.9-1.5-0.9-2.5c0-1.1,0.3-2,0.9-2.7c0.6-0.7,1.4-1,2.3-1c0.7,0,1.2,0.2,1.7,0.5
			c0.5,0.3,0.8,0.8,1.1,1.5C118.4,46.1,118.5,46.7,118.5,47.4z M113.6,46.8h2.9c0.2,0,0.3-0.1,0.4-0.2c0.1-0.1,0.1-0.3,0.1-0.6
			c0-0.5-0.2-1-0.5-1.4c-0.3-0.4-0.7-0.6-1.2-0.6c-0.5,0-0.9,0.2-1.3,0.7C113.8,45.3,113.6,46,113.6,46.8z"/>
		<path class="st3" d="M129.4,44.5c0.6,1.1,1.1,1.8,1.4,2.3s0.7,1,1.1,1.4c0.8-0.9,1.1-1.7,1.1-2.3c0-0.3-0.1-0.5-0.3-0.6
			s-0.5-0.2-0.9-0.2h-0.4v-0.5h4v0.5h-0.3c-0.3,0-0.5,0-0.6,0.1c-0.2,0.1-0.3,0.2-0.5,0.4s-0.3,0.5-0.5,0.9
			c-0.4,0.9-0.9,1.6-1.3,2.2c0.7,0.7,1.2,1,1.7,1c0.3,0,0.6-0.1,0.8-0.3c0.2-0.2,0.3-0.7,0.4-1.2h0.5c0,0.9-0.2,1.6-0.6,2.1
			s-0.9,0.7-1.5,0.7c-0.3,0-0.7-0.1-1-0.2s-0.8-0.5-1.2-0.9c-0.6,0.5-1.1,0.8-1.5,0.9s-0.9,0.2-1.4,0.2c-0.9,0-1.7-0.3-2.3-0.9
			s-0.9-1.3-0.9-2.2c0-0.7,0.2-1.2,0.6-1.8s1.1-1,2.1-1.6c-0.5-0.9-0.7-1.7-0.7-2.4c0-0.7,0.2-1.3,0.7-1.7c0.5-0.5,1.1-0.7,1.8-0.7
			c0.7,0,1.2,0.2,1.6,0.5c0.4,0.3,0.6,0.8,0.6,1.4c0,0.5-0.2,1.1-0.6,1.5C131.1,43.6,130.4,44.1,129.4,44.5z M128.2,45.1
			c-1,0.6-1.5,1.2-1.5,2c0,0.6,0.2,1.2,0.7,1.9c0.5,0.7,1.1,1,1.8,1c0.6,0,1.2-0.2,1.9-0.7c-0.5-0.6-0.9-1.1-1.3-1.7
			C129.3,47.1,128.8,46.3,128.2,45.1z M129.1,44c0.7-0.3,1.2-0.6,1.4-1c0.3-0.3,0.4-0.8,0.4-1.2c0-0.5-0.1-0.8-0.4-1.1
			s-0.5-0.4-0.9-0.4c-0.4,0-0.7,0.1-0.9,0.4s-0.4,0.6-0.4,1C128.4,42.3,128.7,43,129.1,44z"/>
		<path class="st3" d="M142.1,43.9h3v0.5h-0.4c-0.2,0-0.3,0-0.4,0.1s-0.1,0.1-0.1,0.2c0,0.1,0,0.2,0.1,0.3l1.5,3.8l1.3-3.7
			c-0.2-0.4-0.4-0.6-0.5-0.7s-0.4-0.1-0.7-0.1v-0.5h3.3v0.5h-0.3c-0.2,0-0.4,0-0.5,0.1c-0.1,0.1-0.1,0.2-0.1,0.3
			c0,0.1,0,0.2,0.1,0.3l1.5,3.8l1.2-3.4c0.1-0.2,0.1-0.4,0.1-0.6c0-0.2-0.1-0.3-0.2-0.4s-0.4-0.1-0.7-0.2v-0.5h2.6v0.5
			c-0.3,0-0.6,0.2-0.8,0.3s-0.3,0.4-0.4,0.7l-2,5.5h-0.4l-1.9-4.8l-1.7,4.8h-0.4l-2.4-6c-0.1-0.2-0.2-0.3-0.3-0.4
			c-0.1-0.1-0.3-0.1-0.5-0.1L142.1,43.9L142.1,43.9z"/>
		<path class="st3" d="M154.2,40l2.6-0.1v5.2c0.4-0.5,0.7-0.8,1.1-1c0.4-0.2,0.9-0.3,1.3-0.3c0.4,0,0.8,0.1,1.2,0.3
			c0.3,0.2,0.5,0.5,0.7,0.9s0.3,0.9,0.3,1.5v3.2c0,0.2,0.1,0.4,0.2,0.5s0.3,0.1,0.5,0.1h0.6v0.5h-3.7v-0.5h0.4c0.3,0,0.5,0,0.6-0.2
			c0.1-0.1,0.2-0.2,0.2-0.5v-3.2c0-0.6-0.1-1-0.4-1.3c-0.3-0.3-0.6-0.5-1.1-0.5c-0.3,0-0.6,0.1-0.9,0.3s-0.5,0.5-0.7,0.8
			c-0.2,0.4-0.3,0.8-0.3,1.2v2.7c0,0.2,0.1,0.4,0.1,0.5c0.1,0.1,0.3,0.2,0.5,0.2h0.6v0.5h-3.6v-0.5h0.4c0.3,0,0.5,0,0.6-0.2
			s0.2-0.3,0.2-0.5v-8.1c0-0.3-0.1-0.5-0.2-0.7c-0.1-0.1-0.4-0.2-0.7-0.2h-0.5L154.2,40L154.2,40z"/>
		<path class="st3" d="M163.9,43.9l2.7-0.1v5.8c0,0.2,0,0.3,0.1,0.3c0.1,0.1,0.2,0.2,0.4,0.2h0.8v0.5H164v-0.5h0.7
			c0.2,0,0.4,0,0.5-0.2c0.1-0.1,0.1-0.2,0.1-0.5v-4.3c0-0.3-0.1-0.5-0.2-0.6c-0.2-0.1-0.4-0.2-0.7-0.2h-0.6L163.9,43.9L163.9,43.9z
			 M165.8,39.9c0.2,0,0.4,0.1,0.6,0.2c0.2,0.2,0.2,0.4,0.2,0.6s-0.1,0.4-0.2,0.6c-0.2,0.2-0.4,0.2-0.6,0.2s-0.4-0.1-0.6-0.2
			c-0.2-0.2-0.2-0.3-0.2-0.6s0.1-0.4,0.2-0.6C165.4,39.9,165.6,39.9,165.8,39.9z"/>
		<path class="st3" d="M170.1,48.2c0.3,0.8,0.6,1.4,1,1.7c0.4,0.3,0.9,0.5,1.4,0.5c0.5,0,0.9-0.1,1.2-0.3c0.3-0.2,0.4-0.5,0.4-0.9
			c0-0.2-0.1-0.4-0.2-0.5c-0.1-0.2-0.2-0.3-0.4-0.3c-0.2-0.1-0.7-0.2-1.4-0.3c-0.7-0.2-1.2-0.3-1.5-0.5s-0.5-0.4-0.7-0.7
			c-0.2-0.3-0.2-0.6-0.2-0.9c0-0.5,0.2-1,0.5-1.4c0.4-0.5,1-0.8,1.8-0.8c0.6,0,1.1,0.2,1.6,0.6l0.5-0.5h0.3l0.2,2.4h-0.5
			c-0.2-0.7-0.5-1.2-0.9-1.5s-0.8-0.5-1.3-0.5c-0.5,0-0.8,0.1-1.1,0.3s-0.4,0.5-0.4,0.8c0,0.3,0.1,0.5,0.4,0.7s0.7,0.3,1.4,0.5
			c0.8,0.1,1.3,0.2,1.6,0.3c0.4,0.1,0.7,0.4,0.9,0.7s0.3,0.7,0.3,1.1c0,0.6-0.2,1.1-0.7,1.5s-1.1,0.6-1.8,0.6
			c-0.7,0-1.3-0.2-1.9-0.7l-0.5,0.6h-0.4l-0.1-2.7L170.1,48.2L170.1,48.2z"/>
		<path class="st3" d="M176.6,40l2.6-0.1v7.4l2.2-1.9c0.2-0.2,0.3-0.3,0.3-0.5c0-0.1-0.1-0.2-0.2-0.3c-0.2-0.1-0.5-0.2-0.9-0.2v-0.5
			h3.6v0.5c-0.7,0-1.3,0.2-1.6,0.6l-1.6,1.4l2.5,3.5c0.2,0.2,0.4,0.3,0.8,0.3h0.4v0.5h-3.7v-0.5h0.4c0.3,0,0.5,0,0.6-0.1
			c0.1,0,0.1-0.1,0.1-0.2c0-0.1,0-0.1-0.1-0.2l-1.9-2.6l-1,0.9v1.7c0,0.1,0.1,0.2,0.1,0.3c0.1,0.1,0.3,0.1,0.5,0.1h0.5v0.5h-3.6
			v-0.5h0.6c0.2,0,0.4,0,0.5-0.2c0.1-0.1,0.2-0.2,0.2-0.4v-8.4c0-0.2-0.1-0.4-0.2-0.5c-0.2-0.2-0.5-0.2-0.8-0.2h-0.4L176.6,40
			L176.6,40z"/>
		<path class="st3" d="M186,43.9h3.2v0.5H189c-0.3,0-0.5,0-0.6,0.1c-0.1,0.1-0.2,0.2-0.2,0.3c0,0.1,0,0.1,0,0.2l1.9,4.1l1.4-3.4
			c0.1-0.2,0.1-0.5,0.1-0.7c0-0.2-0.1-0.3-0.2-0.4s-0.4-0.2-0.8-0.2v-0.5h2.8v0.5c-0.6,0-0.9,0.3-1.1,0.7l-2.5,5.8
			c-0.4,1-0.9,1.7-1.3,2c-0.4,0.4-0.9,0.6-1.4,0.6c-0.4,0-0.6-0.1-0.9-0.3s-0.3-0.4-0.3-0.7c0-0.2,0.1-0.4,0.2-0.5
			c0.1-0.1,0.3-0.2,0.5-0.2c0.2,0,0.3,0.1,0.5,0.2c0.1,0.1,0.2,0.3,0.2,0.4c0,0,0,0.1,0,0.2c0,0.1,0,0.1,0,0.2
			c0,0.1,0.1,0.2,0.2,0.2c0.2,0,0.3-0.1,0.5-0.2c0.2-0.1,0.4-0.3,0.6-0.6c0.2-0.3,0.5-0.8,0.9-1.7l-2.6-5.5
			c-0.1-0.2-0.2-0.3-0.3-0.4c-0.1-0.1-0.3-0.2-0.6-0.2L186,43.9L186,43.9z"/>
		<path class="st3" d="M206.6,50l0.3,0.4c-0.4,0.4-0.7,0.5-1.2,0.5c-0.3,0-0.6-0.1-0.8-0.3s-0.4-0.5-0.6-0.9c-0.5,0.5-0.9,0.8-1.2,1
			s-0.8,0.2-1.2,0.2c-0.7,0-1.2-0.2-1.6-0.5s-0.5-0.7-0.5-1.2c0-0.7,0.4-1.3,1.2-1.8c0.8-0.5,1.9-0.8,3.3-0.9v-1
			c0-0.4-0.1-0.7-0.4-0.9c-0.3-0.3-0.7-0.4-1.1-0.4c-0.4,0-0.8,0.1-1.1,0.3c-0.2,0.1-0.3,0.3-0.3,0.4c0,0.1,0.1,0.2,0.2,0.3
			c0.1,0.2,0.2,0.4,0.2,0.5c0,0.2-0.1,0.4-0.2,0.5c-0.1,0.1-0.3,0.2-0.6,0.2c-0.2,0-0.4-0.1-0.6-0.2c-0.2-0.2-0.2-0.4-0.2-0.6
			c0-0.5,0.3-0.9,0.8-1.3c0.5-0.4,1.2-0.6,2.1-0.6c0.8,0,1.4,0.2,1.9,0.5c0.4,0.3,0.6,0.8,0.6,1.3v3.7c0,0.3,0.1,0.6,0.2,0.7
			s0.2,0.2,0.4,0.2C206.2,50.2,206.4,50.1,206.6,50z M204.2,47.1c-1.2,0.2-2.1,0.5-2.6,0.8c-0.4,0.3-0.6,0.7-0.6,1.2
			c0,0.4,0.1,0.7,0.3,0.9s0.5,0.3,0.8,0.3c0.6,0,1.1-0.2,1.5-0.7s0.6-1,0.6-1.6L204.2,47.1L204.2,47.1z"/>
		<path class="st3" d="M210.6,43.8v4.5c0,0.5,0.1,1,0.4,1.3s0.6,0.5,1.1,0.5c0.5,0,1-0.2,1.4-0.7s0.6-1,0.6-1.6v-2.5
			c0-0.2-0.1-0.4-0.2-0.5s-0.5-0.2-1-0.2v-0.5l2.4-0.1v5.6c0,0.3,0.1,0.5,0.2,0.6c0.1,0.1,0.4,0.2,0.6,0.2h0.4v0.5l-2.3,0l-0.1-1.3
			c-0.4,0.5-0.8,0.8-1.2,1.1s-0.8,0.4-1.2,0.4c-0.6,0-1.1-0.2-1.5-0.6c-0.4-0.4-0.6-1.1-0.6-2.1v-3c0-0.3-0.1-0.5-0.3-0.6
			c-0.1-0.1-0.4-0.2-0.9-0.2v-0.5L210.6,43.8z"/>
		<path class="st3" d="M223.1,48.7l0.5,0.1c-0.4,1.4-1.2,2.1-2.5,2.1c-0.9,0-1.7-0.3-2.3-0.9c-0.6-0.6-0.9-1.5-0.9-2.5
			c0-1.2,0.3-2.1,1-2.8c0.7-0.7,1.4-1,2.3-1c0.7,0,1.2,0.2,1.6,0.5s0.6,0.8,0.6,1.2c0,0.3-0.1,0.5-0.2,0.7c-0.2,0.2-0.4,0.3-0.6,0.3
			c-0.2,0-0.4-0.1-0.6-0.2c-0.1-0.2-0.2-0.3-0.2-0.5s0.1-0.4,0.2-0.6c0.1-0.1,0.1-0.2,0.1-0.2c0-0.1-0.1-0.3-0.3-0.4
			s-0.4-0.2-0.8-0.2c-0.6,0-1,0.2-1.3,0.7c-0.4,0.6-0.6,1.4-0.6,2.5c0,1,0.2,1.7,0.6,2.2c0.4,0.5,0.9,0.8,1.5,0.8
			C222.1,50.3,222.7,49.8,223.1,48.7z"/>
		<path class="st3" d="M226.9,41.2h0.5v2.8h2.2v0.7h-2.2V49c0,0.4,0.1,0.7,0.3,0.9c0.2,0.2,0.4,0.3,0.7,0.3c0.3,0,0.6-0.2,0.8-0.5
			c0.2-0.3,0.4-0.8,0.4-1.5h0.5c0,0.9-0.2,1.6-0.6,2s-0.9,0.7-1.5,0.7c-0.6,0-1-0.2-1.3-0.5c-0.3-0.3-0.5-0.7-0.5-1.2v-4.6H225v-0.5
			c0.5-0.1,0.9-0.3,1.2-0.7C226.6,42.9,226.9,42.1,226.9,41.2z"/>
		<path class="st3" d="M231.3,43.9l2.7-0.1v5.8c0,0.2,0,0.3,0.1,0.3c0.1,0.1,0.2,0.2,0.4,0.2h0.8v0.5h-3.9v-0.5h0.7
			c0.2,0,0.4,0,0.5-0.2c0.1-0.1,0.1-0.2,0.1-0.5v-4.3c0-0.3-0.1-0.5-0.2-0.6c-0.2-0.1-0.4-0.2-0.7-0.2h-0.6L231.3,43.9L231.3,43.9z
			 M233.2,39.9c0.2,0,0.4,0.1,0.6,0.2c0.2,0.2,0.2,0.4,0.2,0.6s-0.1,0.4-0.2,0.6c-0.2,0.2-0.4,0.2-0.6,0.2s-0.4-0.1-0.6-0.2
			s-0.2-0.3-0.2-0.6s0.1-0.4,0.2-0.6C232.8,39.9,233,39.9,233.2,39.9z"/>
		<path class="st3" d="M239.9,43.7c0.9,0,1.7,0.3,2.3,1c0.6,0.7,0.9,1.5,0.9,2.6c0,0.7-0.1,1.4-0.4,1.9s-0.7,0.9-1.2,1.2
			c-0.5,0.3-1.1,0.5-1.7,0.5c-0.9,0-1.6-0.3-2.2-1s-0.9-1.5-0.9-2.6c0-1.1,0.3-1.9,0.9-2.6C238.3,44,239,43.7,239.9,43.7z
			 M239.9,44.2c-0.5,0-1,0.2-1.3,0.7c-0.4,0.5-0.5,1.3-0.5,2.3c0,1.1,0.2,1.9,0.5,2.4s0.8,0.8,1.3,0.8c0.6,0,1-0.2,1.4-0.8
			c0.4-0.5,0.5-1.3,0.5-2.4c0-1-0.2-1.8-0.5-2.3C241,44.5,240.5,44.2,239.9,44.2z"/>
		<path class="st3" d="M244.8,43.9l2.2-0.1c0.1,0.4,0.2,0.9,0.2,1.5c0.3-0.5,0.7-0.9,1.1-1.1c0.4-0.2,0.9-0.4,1.4-0.4
			c0.5,0,0.8,0.1,1.1,0.3c0.3,0.2,0.5,0.5,0.7,0.8c0.2,0.4,0.3,0.8,0.3,1.3v3.3c0,0.2,0,0.4,0.2,0.5c0.1,0.1,0.3,0.2,0.6,0.2h0.5
			v0.5h-3.6v-0.5h0.3c0.3,0,0.5,0,0.7-0.2c0.1-0.1,0.2-0.2,0.2-0.5v-2.9c0-0.6-0.1-1.1-0.3-1.4c-0.3-0.4-0.7-0.7-1.2-0.7
			c-0.6,0-1,0.2-1.4,0.7c-0.4,0.4-0.6,1-0.6,1.7v2.5c0,0.2,0.1,0.4,0.2,0.5s0.3,0.2,0.6,0.2h0.5v0.5h-3.6v-0.5h0.5
			c0.2,0,0.4,0,0.5-0.2c0.1-0.1,0.2-0.2,0.2-0.4v-4.4c0-0.3-0.1-0.5-0.2-0.7s-0.4-0.2-0.7-0.2h-0.4L244.8,43.9L244.8,43.9z"/>
		<path class="st3" d="M255.2,48.2c0.3,0.8,0.6,1.4,1,1.7c0.4,0.3,0.9,0.5,1.4,0.5c0.5,0,0.9-0.1,1.2-0.3s0.4-0.5,0.4-0.9
			c0-0.2,0-0.4-0.2-0.5c-0.1-0.2-0.2-0.3-0.4-0.3c-0.2-0.1-0.7-0.2-1.4-0.3c-0.7-0.2-1.2-0.3-1.5-0.5c-0.3-0.2-0.5-0.4-0.7-0.7
			s-0.2-0.6-0.2-0.9c0-0.5,0.2-1,0.5-1.4c0.4-0.5,1-0.8,1.8-0.8c0.6,0,1.1,0.2,1.6,0.6l0.5-0.5h0.3l0.2,2.4h-0.5
			c-0.2-0.7-0.5-1.2-0.9-1.5s-0.8-0.5-1.3-0.5c-0.5,0-0.8,0.1-1.1,0.3c-0.3,0.2-0.4,0.5-0.4,0.8c0,0.3,0.1,0.5,0.4,0.7
			c0.2,0.2,0.7,0.3,1.4,0.5c0.8,0.1,1.3,0.2,1.6,0.3c0.4,0.1,0.7,0.4,0.9,0.7s0.3,0.7,0.3,1.1c0,0.6-0.2,1.1-0.7,1.5
			s-1.1,0.6-1.8,0.6c-0.7,0-1.3-0.2-1.9-0.7l-0.5,0.6h-0.4l-0.1-2.7L255.2,48.2L255.2,48.2z"/>
	</g>
</g>
<rect x="439.1" y="-117.3" class="st4" width="172.3" height="36.1"/>
</svg>
