<svg width="17" height="16" viewBox="0 0 17 16" fill="none" xmlns="http://www.w3.org/2000/svg">
<path fill-rule="evenodd" clip-rule="evenodd" d="M8.42798 16C12.8463 16 16.428 12.4183 16.428 8C16.428 3.58172 12.8463 0 8.42798 0C4.0097 0 0.427979 3.58172 0.427979 8C0.427979 12.4183 4.0097 16 8.42798 16ZM5.1703 5.33369C5.1703 5.33369 7.051 5 8.5 5C9.949 5 11.8297 5.33369 11.8297 5.33369L11.8311 5.33555C12.1565 5.38272 12.453 5.53503 12.6673 5.7651C12.8815 5.99517 12.9995 6.28793 13 6.59077V8.49969V8.50031V10.4086V10.4092C12.9997 10.7123 12.8817 11.0053 12.6673 11.2355C12.4528 11.4657 12.1561 11.618 11.8304 11.6651L11.8297 11.6657C11.8297 11.6657 9.949 12 8.5 12C7.051 12 5.1703 11.6657 5.1703 11.6657L5.16895 11.6638C4.84359 11.6167 4.54717 11.4645 4.33293 11.2345C4.11869 11.0046 4.00064 10.712 4 10.4092V10.4086V8.50031V8.49969V6.59077C4 5.95689 4.50561 5.43567 5.16557 5.33866L5.1703 5.33369ZM10.2308 8.49969L7.46154 7.03569V9.96369L10.2308 8.49969Z" fill="#CE4558"/>
</svg>
